<svg viewBox="0 0 120 25" fill="none" xmlns="http://www.w3.org/2000/svg">
<path d="M37.3922 12.677C39.3392 12.677 40.9312 14.1744 41.0204 16.0879L41.0107 16.0859C41.0631 17.2468 40.8575 19.4869 38.8718 21.4462C37.5008 22.8022 35.5694 23.744 33.097 24.2737C31.5321 24.6062 27.8186 24.658 25.8251 24.658H24.0876C24.4541 24.4768 25.3791 23.7261 26.2479 22.5175C28.0998 22.4975 31.5728 22.384 32.9806 22.0475C34.8461 21.6035 36.3024 20.8867 37.2933 19.907C38.6779 18.5411 38.8214 16.9899 38.7846 16.1875C38.7516 15.4448 38.1349 14.8633 37.3825 14.8633H34.6638C34.3691 14.8633 34.084 14.7478 33.8746 14.5408C33.6652 14.3337 33.5488 14.0549 33.5508 13.7622C33.5643 12.0597 33.0369 10.7754 31.9393 9.83954C30.4636 8.57915 28.2627 8.16297 26.3099 8.08135C25.9872 8.06832 25.2864 8.05111 24.7731 8.03847C24.4998 8.03176 24.2797 8.02637 24.1982 8.0236C24.8808 8.57317 25.3481 9.3836 25.4955 10.3911C25.5945 11.066 25.5925 11.7582 25.5906 12.4281L25.5905 12.464V12.7527C25.5905 13.4476 25.1949 13.8379 24.4774 13.8538C23.9635 13.8638 23.2713 13.7662 23.2034 12.8064C23.1893 12.6002 23.1912 12.394 23.1931 12.1862L23.1937 12.1234L23.1943 12.0627C23.1962 11.8795 23.1981 11.695 23.1859 11.5122C23.1685 11.2135 23.1355 10.867 23.0405 10.5564C22.928 10.188 22.6585 9.74795 22.0089 9.72607C21.7335 9.71611 20.6437 9.68621 20.6437 9.68621C19.4647 9.68621 18.3749 10.1382 17.574 10.9606C16.8061 11.7491 16.4105 12.7825 16.4628 13.8717V20.6677C16.4628 20.6677 16.4376 21.1595 16.4628 21.4004C16.49 21.6413 16.6354 21.9659 16.7576 22.1152C16.9748 22.382 17.2948 22.5274 17.7097 22.5393C17.8493 22.5433 18.0103 22.5473 18.1868 22.5513V22.5553H18.9372C20.1046 22.5553 21.2312 22.0854 22.0302 21.265C22.8078 20.4665 23.2073 19.4251 23.1549 18.332V17.6231H21.1304C20.7542 17.6231 20.3354 17.5853 20.0697 17.3125C19.8021 17.0377 19.7846 16.6176 19.8021 16.2452C19.837 15.5304 20.2345 15.1481 20.952 15.1481C22.0438 15.1441 23.1394 15.1421 24.2331 15.1481C25.0204 15.1521 25.4916 15.5324 25.5808 16.2213L25.606 17.6072C25.6073 17.779 25.6094 17.9491 25.6107 18.1198C25.6114 18.2082 25.6118 18.2967 25.6118 18.3858H25.6099C25.6448 20.0823 25.0087 21.6871 23.8045 22.9256C22.9532 23.8018 21.8654 24.5723 20.6825 24.883C20.1162 25.0323 17.605 25.0065 17.2986 24.9786C15.7958 24.8452 14.7079 23.9949 14.2444 22.6449C14.1552 22.384 14.0447 21.932 14.0447 21.5836C14.0447 21.2351 13.9749 13.9534 13.9749 13.9534C13.9031 12.2031 14.5411 10.5404 15.7764 9.27208C16.4609 8.56918 17.3006 8.02958 18.2197 7.68511C18.5959 7.54369 19.2805 7.38443 19.8971 7.29678C20.4304 7.22114 20.919 7.21118 21.0141 7.21317C18.9101 4.89739 16.6897 3.21489 15.6154 2.46023C14.6633 3.55937 14.2328 5.95273 14.1708 7.10763C14.1417 7.63134 13.7403 8.06142 13.2109 8.13312C11.6789 8.34216 7.33715 9.20237 5.67916 10.654C4.13946 12.002 3.89319 15.0704 3.92809 16.1397C3.94361 16.5837 3.68182 16.9939 3.26878 17.1751C3.06323 17.2687 2.00445 17.8163 2.27593 18.8776C2.69673 20.5263 4.29266 21.3785 6.10384 21.8026C7.80836 22.2029 11.1689 22.4816 12.4468 22.4298C12.6175 23.2044 12.92 24.0248 13.5502 24.5525C13.4333 24.5672 12.7695 24.56 11.945 24.5511C11.3205 24.5443 10.6038 24.5365 9.96277 24.5365C6.56924 24.5365 1.20939 23.6883 0.115705 19.4092C-0.36133 17.5375 0.728475 16.2193 1.70969 15.5443C1.76399 14.1286 2.1208 10.8371 4.19958 9.01919C6.18141 7.28487 10.209 6.41869 12.0319 6.10406C12.2335 4.50713 12.8967 1.32122 15.0065 0.142454C15.3672 -0.0566644 15.8074 -0.0467474 16.1565 0.170358C16.3484 0.289849 19.7846 2.46217 22.9338 6.02244C25.5362 5.73373 30.3938 5.61823 33.4092 8.19083C34.7472 9.33182 35.5268 10.8391 35.7323 12.677H37.3922Z" fill="currentColor"/>
<path d="M7.11802 14.0609C7.11802 14.7857 7.71529 15.3731 8.45411 15.3731C9.19293 15.3731 9.79019 14.7877 9.79019 14.0609C9.79019 13.3341 9.19293 12.7487 8.45411 12.7487C7.71529 12.7487 7.11802 13.3361 7.11802 14.0609Z" fill="currentColor"/>
<path d="M31.3343 14.0609C31.3343 13.3361 30.737 12.7487 29.9982 12.7487C29.2594 12.7487 28.6621 13.3361 28.6621 14.0609C28.6621 14.7857 29.2594 15.3731 29.9982 15.3731C30.737 15.3731 31.3343 14.7877 31.3343 14.0609Z" fill="currentColor"/>
<path d="M117.681 20.3594V18.0993C117.681 17.7652 117.628 17.5462 117.522 17.4442C117.417 17.3423 117.206 17.2902 116.89 17.2902H115.547C113.914 17.2902 113.098 16.4725 113.098 14.8348V11.9608C113.098 10.3037 113.914 9.47726 115.547 9.47726H117.469C119.12 9.47726 119.946 10.3058 119.946 11.9608V13.2731H117.628V12.2124C117.628 11.8784 117.576 11.6593 117.469 11.5574C117.365 11.4554 117.154 11.4034 116.838 11.4034H116.206C115.89 11.4034 115.679 11.4533 115.575 11.5574C115.47 11.6593 115.416 11.8784 115.416 12.2124V14.5572C115.416 14.8912 115.468 15.1103 115.575 15.2123C115.681 15.3142 115.89 15.3663 116.206 15.3663H117.576C119.193 15.3663 120 16.1948 120 17.8498V20.6414C120 22.2791 119.184 23.0968 117.551 23.0968H115.602C113.968 23.0968 113.153 22.2791 113.153 20.6414V19.3031H115.47V20.3638C115.47 20.6978 115.522 20.9169 115.629 21.0188C115.736 21.1208 115.945 21.1728 116.261 21.1728H116.892C117.208 21.1728 117.419 21.123 117.524 21.0188C117.628 20.9169 117.683 20.6978 117.683 20.3638L117.681 20.3594ZM111.965 11.5118H110.2V20.136C110.2 20.4701 110.248 20.6891 110.344 20.7911C110.44 20.893 110.647 20.9451 110.963 20.9451H111.963V23.0946H110.277C108.627 23.0946 107.801 22.2769 107.801 20.6393V11.514H106.59V9.47726H107.801V7.16069H110.197V9.47726H111.963V11.514L111.965 11.5118ZM100.401 15.2253H103.246V12.2667C103.246 11.95 103.197 11.7374 103.101 11.6246C103.005 11.5118 102.798 11.4576 102.482 11.4576H101.192C100.876 11.4576 100.665 11.514 100.56 11.6246C100.456 11.7353 100.401 11.95 100.401 12.2667V15.2253ZM100.533 9.47726H103.114C104.764 9.47726 105.59 10.3058 105.59 11.9608V17.069H100.401V20.3074C100.401 20.6241 100.453 20.8366 100.56 20.9494C100.667 21.0622 100.876 21.1164 101.192 21.1164H102.403C102.718 21.1164 102.93 21.0601 103.034 20.9494C103.139 20.8388 103.193 20.6154 103.193 20.2792V19.1621H105.511V20.6414C105.511 22.2791 104.695 23.0968 103.061 23.0968H100.533C98.8995 23.0968 98.0839 22.2791 98.0839 20.6414V11.9608C98.0839 10.3037 98.8995 9.47726 100.533 9.47726ZM94.3967 5.625H96.8457L93.8696 23.0946H90.4982L87.5221 5.625H89.9712L92.1588 20.7781L94.3967 5.625ZM82.0698 21.0579H82.9921C83.3079 21.0579 83.5317 20.9841 83.6634 20.8345C83.7952 20.6848 83.86 20.4354 83.86 20.0818V12.4619C83.86 12.1083 83.7952 11.8567 83.6634 11.7092C83.5317 11.5617 83.3079 11.4858 82.9921 11.4858H82.0698C81.7539 11.4858 81.5427 11.5422 81.4381 11.6528C81.3336 11.7635 81.2792 11.9782 81.2792 12.2949V20.2488C81.2792 20.5829 81.3315 20.8019 81.4381 20.9039C81.5448 21.0058 81.7539 21.0579 82.0698 21.0579ZM83.8663 7.17154H86.238L86.2317 23.0946H83.86V22.0058C83.6321 22.7302 83.0883 23.0946 82.2266 23.0946H81.2792C79.7002 23.0946 78.9075 22.2769 78.9075 20.6393V11.9326C78.9075 10.2755 79.6981 9.44906 81.2792 9.44906H82.2266C83.0862 9.44906 83.6321 9.81129 83.86 10.5379L83.8663 7.17371V7.17154ZM74.5364 20.277V12.2949C74.5364 11.9608 74.4841 11.7374 74.3775 11.6246C74.2708 11.5118 74.0616 11.4576 73.7458 11.4576H72.2965C71.9807 11.4576 71.7736 11.514 71.6774 11.6246C71.5812 11.7353 71.5331 11.9587 71.5331 12.2949V20.277C71.5331 20.6111 71.5812 20.8345 71.6774 20.9473C71.7736 21.0579 71.9807 21.1143 72.2965 21.1143H73.7458C74.0616 21.1143 74.2729 21.0579 74.3775 20.9473C74.482 20.8366 74.5364 20.6132 74.5364 20.277ZM71.6126 9.47726H74.4318C76.0652 9.47726 76.8809 10.3058 76.8809 11.9608V20.6414C76.8809 22.2791 76.0652 23.0968 74.4318 23.0968H71.6126C69.9959 23.0968 69.1886 22.2791 69.1886 20.6414V11.9608C69.1886 10.3037 69.9959 9.47726 71.6126 9.47726ZM64.7903 20.277V12.2949C64.7903 11.9608 64.738 11.7374 64.6314 11.6246C64.5247 11.5118 64.3156 11.4576 63.9998 11.4576H62.5504C62.2346 11.4576 62.0275 11.514 61.9313 11.6246C61.8351 11.7353 61.787 11.9587 61.787 12.2949V20.277C61.787 20.6111 61.8351 20.8345 61.9313 20.9473C62.0275 21.0579 62.2346 21.1143 62.5504 21.1143H63.9998C64.3156 21.1143 64.5268 21.0579 64.6314 20.9473C64.7359 20.8366 64.7903 20.6132 64.7903 20.277ZM61.8665 9.47726H64.6857C66.3192 9.47726 67.1348 10.3058 67.1348 11.9608V20.6414C67.1348 22.2791 66.3192 23.0968 64.6857 23.0968H61.8665C60.2498 23.0968 59.4425 22.2791 59.4425 20.6414V11.9608C59.4425 10.3037 60.2498 9.47726 61.8665 9.47726ZM57.3093 10.7331H54.9125V8.41658C54.9125 8.08255 54.8602 7.86347 54.7535 7.76153C54.6489 7.65958 54.4377 7.60752 54.1219 7.60752H52.7792C52.4634 7.60752 52.2522 7.65741 52.1476 7.76153C52.043 7.86347 51.9886 8.08255 51.9886 8.41658V20.3334C51.9886 20.6675 52.0409 20.8865 52.1476 20.9885C52.2543 21.0904 52.4634 21.1425 52.7792 21.1425H54.1219C54.4377 21.1425 54.6489 21.0926 54.7535 20.9885C54.8581 20.8865 54.9125 20.6675 54.9125 20.3334V16.0625H53.5949V14.1104H57.3093V20.6414C57.3093 22.2986 56.4936 23.125 54.8602 23.125H52.0409C50.4075 23.125 49.5919 22.2964 49.5919 20.6414V8.08255C49.5919 6.4449 50.4075 5.62717 52.0409 5.62717H54.8602C56.4936 5.62717 57.3093 6.4449 57.3093 8.08255V10.7353V10.7331Z" fill="currentColor"/>
</svg>
